<?xml version="1.0" encoding="UTF-8" standalone="no" ?>
<!DOCTYPE svg PUBLIC "-//W3C//DTD SVG 1.1//EN" "http://www.w3.org/Graphics/SVG/1.1/DTD/svg11.dtd">
<svg xmlns="http://www.w3.org/2000/svg" xmlns:xlink="http://www.w3.org/1999/xlink" version="1.1" width="1280" height="1024" viewBox="0 0 1280 1024" xml:space="preserve">
<desc>Created with Fabric.js 4.4.0</desc>
<defs>
</defs>
<g transform="matrix(1 0 0 1 640 512)" id="background-logo"  >
<rect style="stroke: none; stroke-width: 0; stroke-dasharray: none; stroke-linecap: butt; stroke-dashoffset: 0; stroke-linejoin: miter; stroke-miterlimit: 4; fill: rgb(255,255,255); fill-opacity: 0; fill-rule: nonzero; opacity: 1;"  paint-order="stroke"  x="-640" y="-512" rx="0" ry="0" width="1280" height="1024" />
</g>
<g transform="matrix(1.9211538461538462 0 0 1.9211538461538462 640.2031016199337 410.7235855507908)" id="logo-logo"  >
<g style=""  paint-order="stroke"   >
		<g transform="matrix(3.413576936811468 0 0 3.4135769368114683 68.95425412359168 13.48362890040525)"  >
<polygon style="stroke: none; stroke-width: 1; stroke-dasharray: none; stroke-linecap: butt; stroke-dashoffset: 0; stroke-linejoin: miter; stroke-miterlimit: 4; fill: rgb(116,164,252); fill-rule: evenodd; opacity: 1;"  paint-order="stroke"  points="-5.400000000000006,-15.25 -15.299999999999997,-15.25 5.3999999999999915,5.450000000000003 5.3999999999999915,15.25 15.299999999999997,15.25 15.299999999999997,5.450000000000003 " />
</g>
		<g transform="matrix(3.413576936811468 0 0 3.4135769368114683 -0.1706788468405307 26.113863566607705)"  >
<path style="stroke: none; stroke-width: 1; stroke-dasharray: none; stroke-linecap: butt; stroke-dashoffset: 0; stroke-linejoin: miter; stroke-miterlimit: 4; fill: rgb(4,52,156); fill-rule: evenodd; opacity: 1;"  paint-order="stroke"  transform=" translate(-71.95, -79.65)" d="M 57.2 60.7 L 67 60.7 L 46.4 81.4 L 46.4 91.2 L 36.599999999999994 91.2 L 36.599999999999994 81.4 L 57.2 60.7 z M 36.5 93.7 L 107.4 93.7 L 107.4 98.60000000000001 L 36.5 98.60000000000001 L 36.5 93.7 z M 76.9 60.7 L 86.7 60.7 L 66.1 81.4 L 66.1 91.2 L 56.3 91.2 L 56.3 81.4 L 76.9 60.7 z" stroke-linecap="round" />
</g>
		<g transform="matrix(3.413576936811468 0 0 3.4135769368114683 33.62373282759296 46.0832886469548)"  >
<path style="stroke: none; stroke-width: 1; stroke-dasharray: none; stroke-linecap: butt; stroke-dashoffset: 0; stroke-linejoin: miter; stroke-miterlimit: 4; fill: rgb(4,52,156); fill-rule: evenodd; opacity: 1;"  paint-order="stroke"  transform=" translate(-81.85, -85.5)" d="M 76.1 79.8 L 80.69999999999999 79.8 L 80.69999999999999 84.39999999999999 L 76.1 84.39999999999999 L 76.1 79.8 z M 87.5 91.2 L 83 91.2 L 83 86.60000000000001 L 87.6 86.60000000000001 C 87.5 86.6 87.5 91.2 87.5 91.2 z M 76.1 91.2 L 80.69999999999999 91.2 L 80.69999999999999 86.60000000000001 L 76.1 86.60000000000001 C 76.1 86.6 76.1 91.2 76.1 91.2 z M 87.5 79.8 L 83 79.8 L 83 84.39999999999999 L 87.6 84.39999999999999 C 87.5 84.4 87.5 79.8 87.5 79.8 z" stroke-linecap="round" />
</g>
		<g transform="matrix(3.413576936811468 0 0 3.4135769368114683 0 -68.95425412359168)"  >
<linearGradient id="SVGID_80_1_834863" gradientUnits="userSpaceOnUse" gradientTransform="matrix(1 0 0 1 59.2 45.39999999999999)"  x1="0" y1="0" x2="0" y2="13">
<stop offset="0%" style="stop-color:rgb(250,217,97);stop-opacity: 1"/>
<stop offset="100%" style="stop-color:rgb(247,107,28);stop-opacity: 1"/>
</linearGradient>
<path style="stroke: none; stroke-width: 1; stroke-dasharray: none; stroke-linecap: butt; stroke-dashoffset: 0; stroke-linejoin: miter; stroke-miterlimit: 4; fill: url(#SVGID_80_1_834863); fill-rule: evenodd; opacity: 1;"  paint-order="stroke"  transform=" translate(-72, -51.8)" d="M 72 45.4 C 79.1 45.4 84.8 51.1 84.8 58.2 L 59.2 58.2 C 59.2 51.1 64.9 45.4 72 45.4 z" stroke-linecap="round" />
</g>
		<g transform="matrix(3.413576936811468 0 0 3.4135769368114683 -97.45762154596741 -32.59965974654952)"  >
<path style="stroke: none; stroke-width: 1; stroke-dasharray: none; stroke-linecap: butt; stroke-dashoffset: 0; stroke-linejoin: miter; stroke-miterlimit: 4; fill: rgb(116,164,252); fill-rule: evenodd; opacity: 1;"  paint-order="stroke"  transform=" translate(-43.449999999999996, -62.449999999999996)" d="M 39.8 61.9 C 40.099999999999994 61.9 40.5 62 40.8 62 C 41.8 60.7 43.3 59.8 45.099999999999994 59.8 C 47.99999999999999 59.8 50.39999999999999 62.199999999999996 50.39999999999999 65.1 L 43 65.1 L 39.7 65.1 L 36.5 65.1 C 36.5 63.3 38 61.9 39.8 61.9 z" stroke-linecap="round" />
</g>
		<g transform="matrix(3.413576936811468 0 0 3.4135769368114683 99.84712540173541 -23.383002017158503)"  >
<path style="stroke: none; stroke-width: 1; stroke-dasharray: none; stroke-linecap: butt; stroke-dashoffset: 0; stroke-linejoin: miter; stroke-miterlimit: 4; fill: rgb(116,164,252); fill-rule: evenodd; opacity: 1;"  paint-order="stroke"  transform=" translate(-101.25, -65.15)" d="M 98 64.7 C 98.3 64.7 98.6 64.7 98.9 64.8 C 99.80000000000001 63.599999999999994 101.2 62.8 102.7 62.8 C 105.3 62.8 107.4 64.89999999999999 107.4 67.5 L 100.9 67.5 L 98 67.5 L 95.1 67.5 C 95.1 66 96.4 64.7 98 64.7 z" stroke-linecap="round" />
</g>
</g>
</g>
<g transform="matrix(1.9211538461538462 0 0 1.9211538461538462 640.2415246968567 651.4905809762273)" id="text-logo"  >
<g style=""  paint-order="stroke"   >
		<g transform="matrix(1 0 0 1 0 0)" id="text-logo-path-0"  >
<path style="stroke: rgb(255,255,255); stroke-width: 0; stroke-dasharray: none; stroke-linecap: butt; stroke-dashoffset: 0; stroke-linejoin: miter; stroke-miterlimit: 4; fill: rgb(0,51,153); fill-rule: nonzero; opacity: 1;"  paint-order="stroke"  transform=" translate(-252.61999999999998, 16.5)" d="M 1.6 -33 L 9.12 -33 L 9.12 -6.6 L 20.48 -6.6 L 20.48 0 L 1.6 0 L 1.6 -33 Z M 43.6 -33 L 50.56 -33 L 63.88 0 L 55.8 0 L 53.36 -6.6 L 40.8 -6.6 L 38.36 0 L 30.28 0 L 43.6 -33 Z M 43.36 -13.2 L 50.8 -13.2 L 47.12 -22.8 L 47.04 -22.8 L 43.36 -13.2 Z M 91.44 -6.8 L 91.44 -6.8 Q 93.16 -6.8 94.78 -7.32 Q 96.4 -7.84 97.16 -8.32 L 97.16 -8.32 L 97.92 -8.84 L 101.12 -2.44 Q 100.96 -2.32 100.68 -2.12 Q 100.4 -1.92 99.38 -1.38 Q 98.36 -0.84 97.2 -0.44 Q 96.04 -0.04 94.16 0.28 Q 92.28 0.6 90.28 0.6 L 90.28 0.6 Q 85.68 0.6 81.56 -1.66 Q 77.44 -3.92 74.92 -7.88 Q 72.4 -11.84 72.4 -16.44 L 72.4 -16.44 Q 72.4 -19.92 73.88 -23.12 Q 75.36 -26.32 77.82 -28.6 Q 80.28 -30.88 83.56 -32.24 Q 86.84 -33.6 90.28 -33.6 L 90.28 -33.6 Q 93.48 -33.6 96.18 -32.84 Q 98.88 -32.08 100 -31.32 L 100 -31.32 L 101.12 -30.56 L 97.92 -24.16 Q 97.64 -24.4 97.08 -24.74 Q 96.52 -25.08 94.84 -25.64 Q 93.16 -26.2 91.44 -26.2 L 91.44 -26.2 Q 88.72 -26.2 86.56 -25.32 Q 84.4 -24.44 83.14 -23 Q 81.88 -21.56 81.22 -19.9 Q 80.56 -18.24 80.56 -16.52 L 80.56 -16.52 Q 80.56 -12.76 83.38 -9.78 Q 86.2 -6.8 91.44 -6.8 Z M 110.32 -33 L 129.2 -33 L 129.2 -26.4 L 117.84 -26.4 L 117.84 -19.84 L 128.72 -19.84 L 128.72 -13.24 L 117.84 -13.24 L 117.84 -6.6 L 129.2 -6.6 L 129.2 0 L 110.32 0 L 110.32 -33 Z M 150.56 -14.8 L 138.4 -33 L 147.44 -33 L 154.32 -22.44 L 161.2 -33 L 170.24 -33 L 158.08 -14.8 L 158.08 0 L 150.56 0 L 150.56 -14.8 Z M 199.56 0 L 199.56 -33 L 211.6 -33 Q 216.64 -33 219.76 -30.4 Q 222.88 -27.8 222.88 -22.84 Q 222.88 -17.88 219.72 -15.06 Q 216.56 -12.24 211.6 -12.24 L 211.6 -12.24 L 207.08 -12.24 L 207.08 0 L 199.56 0 Z M 207.08 -27 L 207.08 -18.24 L 209.2 -18.24 Q 211.72 -18.24 213.34 -19.26 Q 214.96 -20.28 214.96 -22.6 L 214.96 -22.6 Q 214.96 -24.96 213.34 -25.98 Q 211.72 -27 209.2 -27 L 209.2 -27 L 207.08 -27 Z M 232.08 0 L 232.08 -33 L 243.88 -33 Q 248.64 -33 251.64 -30.46 Q 254.64 -27.92 254.64 -23.2 L 254.64 -23.2 Q 254.64 -19.56 252.82 -17.1 Q 251 -14.64 247.88 -13.64 L 247.88 -13.64 L 259.24 0 L 249.68 0 L 239.6 -13.04 L 239.6 0 L 232.08 0 Z M 239.6 -27 L 239.6 -18.36 L 240.48 -18.36 Q 241.52 -18.36 242.24 -18.4 Q 242.96 -18.44 243.88 -18.68 Q 244.8 -18.92 245.36 -19.36 Q 245.92 -19.8 246.32 -20.64 Q 246.72 -21.48 246.72 -22.68 Q 246.72 -23.88 246.32 -24.72 Q 245.92 -25.56 245.36 -26 Q 244.8 -26.44 243.88 -26.68 Q 242.96 -26.92 242.24 -26.96 Q 241.52 -27 240.48 -27 L 240.48 -27 L 239.6 -27 Z M 263.8 -16.52 L 263.8 -16.52 Q 263.8 -23.68 268.68 -28.64 Q 273.56 -33.6 280.44 -33.6 L 280.44 -33.6 Q 287.36 -33.6 292.2 -28.66 Q 297.04 -23.72 297.04 -16.52 L 297.04 -16.52 Q 297.04 -9.28 292.28 -4.34 Q 287.52 0.6 280.44 0.6 L 280.44 0.6 Q 273.2 0.6 268.5 -4.3 Q 263.8 -9.2 263.8 -16.52 Z M 271.92 -16.52 L 271.92 -16.52 Q 271.92 -13.92 272.72 -11.78 Q 273.52 -9.64 275.52 -8.16 Q 277.52 -6.68 280.44 -6.68 L 280.44 -6.68 Q 284.64 -6.68 286.78 -9.56 Q 288.92 -12.44 288.92 -16.52 L 288.92 -16.52 Q 288.92 -20.56 286.74 -23.46 Q 284.56 -26.36 280.44 -26.36 L 280.44 -26.36 Q 276.36 -26.36 274.14 -23.46 Q 271.92 -20.56 271.92 -16.52 Z M 306.24 0 L 306.24 -33 L 318.28 -33 Q 323.32 -33 326.44 -30.4 Q 329.56 -27.8 329.56 -22.84 Q 329.56 -17.88 326.4 -15.06 Q 323.24 -12.24 318.28 -12.24 L 318.28 -12.24 L 313.76 -12.24 L 313.76 0 L 306.24 0 Z M 313.76 -27 L 313.76 -18.24 L 315.88 -18.24 Q 318.4 -18.24 320.02 -19.26 Q 321.64 -20.28 321.64 -22.6 L 321.64 -22.6 Q 321.64 -24.96 320.02 -25.98 Q 318.4 -27 315.88 -27 L 315.88 -27 L 313.76 -27 Z M 338.76 -33 L 357.64 -33 L 357.64 -26.4 L 346.28 -26.4 L 346.28 -19.84 L 357.16 -19.84 L 357.16 -13.24 L 346.28 -13.24 L 346.28 -6.6 L 357.64 -6.6 L 357.64 0 L 338.76 0 L 338.76 -33 Z M 366.84 0 L 366.84 -33 L 378.64 -33 Q 383.4 -33 386.4 -30.46 Q 389.4 -27.92 389.4 -23.2 L 389.4 -23.2 Q 389.4 -19.56 387.58 -17.1 Q 385.76 -14.64 382.64 -13.64 L 382.64 -13.64 L 394 0 L 384.44 0 L 374.36 -13.04 L 374.36 0 L 366.84 0 Z M 374.36 -27 L 374.36 -18.36 L 375.24 -18.36 Q 376.28 -18.36 377 -18.4 Q 377.72 -18.44 378.64 -18.68 Q 379.56 -18.92 380.12 -19.36 Q 380.68 -19.8 381.08 -20.64 Q 381.48 -21.48 381.48 -22.68 Q 381.48 -23.88 381.08 -24.72 Q 380.68 -25.56 380.12 -26 Q 379.56 -26.44 378.64 -26.68 Q 377.72 -26.92 377 -26.96 Q 376.28 -27 375.24 -27 L 375.24 -27 L 374.36 -27 Z M 409.44 -26.4 L 401.6 -26.4 L 401.6 -33 L 424.8 -33 L 424.8 -26.4 L 416.96 -26.4 L 416.96 0 L 409.44 0 L 409.44 -26.4 Z M 434 -33 L 441.52 -33 L 441.52 0 L 434 0 L 434 -33 Z M 450.72 -33 L 469.6 -33 L 469.6 -26.4 L 458.24 -26.4 L 458.24 -19.84 L 469.12 -19.84 L 469.12 -13.24 L 458.24 -13.24 L 458.24 -6.6 L 469.6 -6.6 L 469.6 0 L 450.72 0 L 450.72 -33 Z M 492.44 -33.6 L 492.44 -33.6 Q 495.12 -33.6 497.68 -32.82 Q 500.24 -32.04 501.48 -31.28 L 501.48 -31.28 L 502.68 -30.48 L 499.64 -24.48 Q 499.28 -24.72 498.64 -25.1 Q 498 -25.48 496.24 -26.12 Q 494.48 -26.76 492.96 -26.76 L 492.96 -26.76 Q 491.08 -26.76 490.06 -25.96 Q 489.04 -25.16 489.04 -23.8 L 489.04 -23.8 Q 489.04 -23.12 489.52 -22.54 Q 490 -21.96 491.16 -21.3 Q 492.32 -20.64 493.2 -20.24 Q 494.08 -19.84 495.92 -19.04 L 495.92 -19.04 Q 499.12 -17.68 501.38 -15.34 Q 503.64 -13 503.64 -10.04 L 503.64 -10.04 Q 503.64 -7.2 502.62 -5.08 Q 501.6 -2.96 499.82 -1.76 Q 498.04 -0.56 495.88 0.02 Q 493.72 0.6 491.2 0.6 L 491.2 0.6 Q 489.04 0.6 486.96 0.16 Q 484.88 -0.28 483.48 -0.94 Q 482.08 -1.6 480.96 -2.24 Q 479.84 -2.88 479.32 -3.32 L 479.32 -3.32 L 478.8 -3.76 L 482.56 -10.08 Q 483.04 -9.68 483.88 -9.06 Q 484.72 -8.44 486.86 -7.4 Q 489 -6.36 490.64 -6.36 L 490.64 -6.36 Q 495.4 -6.36 495.4 -9.6 L 495.4 -9.6 Q 495.4 -10.28 495.06 -10.86 Q 494.72 -11.44 493.86 -12.02 Q 493 -12.6 492.34 -12.94 Q 491.68 -13.28 490.18 -13.98 Q 488.68 -14.68 487.96 -15.04 L 487.96 -15.04 Q 484.96 -16.52 483.32 -18.74 Q 481.68 -20.96 481.68 -23.52 L 481.68 -23.52 Q 481.68 -27.96 484.96 -30.78 Q 488.24 -33.6 492.44 -33.6 Z" stroke-linecap="round" />
</g>
</g>
</g>
<g transform="matrix(1.9211538461538462 0 0 1.9211538461538462 642.292356427626 739.9008597772889)" id="tagline-40576d8e-2a6e-42b0-8a31-cfbb5ee28c24-logo"  >
<g style=""  paint-order="stroke"   >
		<g transform="matrix(1 0 0 1 0 0)" id="tagline-40576d8e-2a6e-42b0-8a31-cfbb5ee28c24-logo-path-0"  >
<path style="stroke: none; stroke-width: 0; stroke-dasharray: none; stroke-linecap: butt; stroke-dashoffset: 0; stroke-linejoin: miter; stroke-miterlimit: 4; fill: rgb(102,153,255); fill-rule: nonzero; opacity: 1;"  paint-order="stroke"  transform=" translate(-127.355, 5.875)" d="M 6.73 0 L 1.93 0 L 1.93 -16.3 L 6.53 -16.3 Q 8.4 -16.3 9.9 -15.83 Q 11.4 -15.35 12.48 -14.36 Q 13.55 -13.38 14.13 -11.85 Q 14.7 -10.33 14.7 -8.22 L 14.7 -8.22 Q 14.7 -6.13 14.13 -4.58 Q 13.55 -3.03 12.5 -2.01 Q 11.45 -1 9.99 -0.5 Q 8.53 0 6.73 0 L 6.73 0 Z M 5.6 -13.33 L 5.6 -2.98 L 6.3 -2.98 Q 7.35 -2.98 8.2 -3.25 Q 9.05 -3.53 9.65 -4.14 Q 10.25 -4.75 10.59 -5.75 Q 10.93 -6.75 10.93 -8.22 L 10.93 -8.22 Q 10.93 -9.68 10.59 -10.66 Q 10.25 -11.65 9.65 -12.24 Q 9.05 -12.83 8.2 -13.08 Q 7.35 -13.33 6.3 -13.33 L 6.3 -13.33 L 5.6 -13.33 Z M 34.55 0 L 24.1 0 L 24.1 -16.3 L 34.3 -16.3 L 34.3 -13.2 L 27.78 -13.2 L 27.78 -9.93 L 33.33 -9.93 L 33.33 -6.85 L 27.78 -6.85 L 27.78 -3.1 L 34.55 -3.1 L 34.55 0 Z M 49.07 0.3 L 49.07 0.3 Q 47.47 0.3 45.89 -0.29 Q 44.3 -0.88 43.05 -2.05 L 43.05 -2.05 L 45.15 -4.58 Q 46.02 -3.83 47.09 -3.35 Q 48.15 -2.88 49.17 -2.88 L 49.17 -2.88 Q 50.32 -2.88 50.89 -3.3 Q 51.45 -3.73 51.45 -4.45 L 51.45 -4.45 Q 51.45 -4.83 51.29 -5.1 Q 51.13 -5.38 50.81 -5.59 Q 50.5 -5.8 50.06 -5.99 Q 49.63 -6.18 49.1 -6.4 L 49.1 -6.4 L 46.97 -7.3 Q 46.35 -7.55 45.76 -7.95 Q 45.17 -8.35 44.71 -8.89 Q 44.25 -9.43 43.97 -10.14 Q 43.7 -10.85 43.7 -11.75 L 43.7 -11.75 Q 43.7 -12.75 44.13 -13.64 Q 44.55 -14.53 45.32 -15.19 Q 46.1 -15.85 47.16 -16.23 Q 48.22 -16.6 49.5 -16.6 L 49.5 -16.6 Q 50.92 -16.6 52.31 -16.05 Q 53.7 -15.5 54.75 -14.45 L 54.75 -14.45 L 52.88 -12.13 Q 52.07 -12.75 51.27 -13.09 Q 50.47 -13.43 49.5 -13.43 L 49.5 -13.43 Q 48.55 -13.43 47.99 -13.04 Q 47.42 -12.65 47.42 -11.95 L 47.42 -11.95 Q 47.42 -11.58 47.61 -11.31 Q 47.8 -11.05 48.14 -10.84 Q 48.47 -10.63 48.92 -10.44 Q 49.38 -10.25 49.9 -10.03 L 49.9 -10.03 L 52 -9.18 Q 53.5 -8.58 54.36 -7.53 Q 55.22 -6.48 55.22 -4.75 L 55.22 -4.75 Q 55.22 -3.73 54.81 -2.81 Q 54.4 -1.9 53.61 -1.21 Q 52.82 -0.53 51.67 -0.11 Q 50.52 0.3 49.07 0.3 Z M 78.9 0 L 75.6 0 L 75.6 -16.3 L 79.63 -16.3 L 82.25 -9.05 Q 82.5 -8.33 82.72 -7.56 Q 82.95 -6.8 83.2 -6.05 L 83.2 -6.05 L 83.3 -6.05 Q 83.55 -6.8 83.76 -7.56 Q 83.97 -8.33 84.22 -9.05 L 84.22 -9.05 L 86.8 -16.3 L 90.8 -16.3 L 90.8 0 L 87.45 0 L 87.45 -5.98 Q 87.45 -6.58 87.5 -7.3 Q 87.55 -8.03 87.63 -8.76 Q 87.7 -9.5 87.78 -10.21 Q 87.85 -10.93 87.92 -11.53 L 87.92 -11.53 L 87.83 -11.53 L 86.5 -7.65 L 84.17 -1.43 L 82.15 -1.43 L 79.83 -7.65 L 78.52 -11.53 L 78.42 -11.53 Q 78.5 -10.93 78.58 -10.21 Q 78.65 -9.5 78.72 -8.76 Q 78.8 -8.03 78.85 -7.3 Q 78.9 -6.58 78.9 -5.98 L 78.9 -5.98 L 78.9 0 Z M 107.57 0.3 L 107.57 0.3 Q 105.92 0.3 104.56 -0.29 Q 103.2 -0.88 102.22 -1.98 Q 101.25 -3.08 100.71 -4.65 Q 100.17 -6.23 100.17 -8.22 L 100.17 -8.22 Q 100.17 -10.23 100.71 -11.79 Q 101.25 -13.35 102.22 -14.41 Q 103.2 -15.48 104.56 -16.04 Q 105.92 -16.6 107.57 -16.6 L 107.57 -16.6 Q 109.22 -16.6 110.59 -16.04 Q 111.95 -15.48 112.92 -14.4 Q 113.9 -13.33 114.44 -11.76 Q 114.97 -10.2 114.97 -8.22 L 114.97 -8.22 Q 114.97 -6.23 114.44 -4.65 Q 113.9 -3.08 112.92 -1.98 Q 111.95 -0.88 110.59 -0.29 Q 109.22 0.3 107.57 0.3 Z M 107.57 -2.88 L 107.57 -2.88 Q 109.25 -2.88 110.22 -4.31 Q 111.2 -5.75 111.2 -8.22 L 111.2 -8.22 Q 111.2 -10.68 110.22 -12.05 Q 109.25 -13.43 107.57 -13.43 L 107.57 -13.43 Q 105.9 -13.43 104.92 -12.05 Q 103.95 -10.68 103.95 -8.22 L 103.95 -8.22 Q 103.95 -5.75 104.92 -4.31 Q 105.9 -2.88 107.57 -2.88 Z M 128.03 0 L 124.35 0 L 124.35 -16.3 L 128.03 -16.3 L 128.03 0 Z M 141.68 0 L 138.18 0 L 138.18 -16.3 L 141.95 -16.3 L 146.2 -8.2 L 147.8 -4.6 L 147.9 -4.6 Q 147.78 -5.9 147.61 -7.5 Q 147.45 -9.1 147.45 -10.55 L 147.45 -10.55 L 147.45 -16.3 L 150.95 -16.3 L 150.95 0 L 147.18 0 L 142.93 -8.13 L 141.32 -11.68 L 141.22 -11.68 Q 141.35 -10.33 141.51 -8.78 Q 141.68 -7.23 141.68 -5.78 L 141.68 -5.78 L 141.68 0 Z M 171.55 0 L 161.1 0 L 161.1 -16.3 L 171.3 -16.3 L 171.3 -13.2 L 164.78 -13.2 L 164.78 -9.93 L 170.33 -9.93 L 170.33 -6.85 L 164.78 -6.85 L 164.78 -3.1 L 171.55 -3.1 L 171.55 0 Z M 186.08 0.3 L 186.08 0.3 Q 184.48 0.3 182.89 -0.29 Q 181.3 -0.88 180.05 -2.05 L 180.05 -2.05 L 182.15 -4.58 Q 183.03 -3.83 184.09 -3.35 Q 185.15 -2.88 186.18 -2.88 L 186.18 -2.88 Q 187.33 -2.88 187.89 -3.3 Q 188.45 -3.73 188.45 -4.45 L 188.45 -4.45 Q 188.45 -4.83 188.29 -5.1 Q 188.13 -5.38 187.81 -5.59 Q 187.5 -5.8 187.06 -5.99 Q 186.63 -6.18 186.1 -6.4 L 186.1 -6.4 L 183.98 -7.3 Q 183.35 -7.55 182.76 -7.95 Q 182.18 -8.35 181.71 -8.89 Q 181.25 -9.43 180.98 -10.14 Q 180.7 -10.85 180.7 -11.75 L 180.7 -11.75 Q 180.7 -12.75 181.13 -13.64 Q 181.55 -14.53 182.33 -15.19 Q 183.1 -15.85 184.16 -16.23 Q 185.23 -16.6 186.5 -16.6 L 186.5 -16.6 Q 187.93 -16.6 189.31 -16.05 Q 190.7 -15.5 191.75 -14.45 L 191.75 -14.45 L 189.88 -12.13 Q 189.08 -12.75 188.28 -13.09 Q 187.48 -13.43 186.5 -13.43 L 186.5 -13.43 Q 185.55 -13.43 184.99 -13.04 Q 184.43 -12.65 184.43 -11.95 L 184.43 -11.95 Q 184.43 -11.58 184.61 -11.31 Q 184.8 -11.05 185.14 -10.84 Q 185.48 -10.63 185.93 -10.44 Q 186.38 -10.25 186.9 -10.03 L 186.9 -10.03 L 189 -9.18 Q 190.5 -8.58 191.36 -7.53 Q 192.23 -6.48 192.23 -4.75 L 192.23 -4.75 Q 192.23 -3.73 191.81 -2.81 Q 191.4 -1.9 190.61 -1.21 Q 189.83 -0.53 188.68 -0.11 Q 187.53 0.3 186.08 0.3 Z M 201.28 4.85 L 201.28 4.85 L 200.53 2.9 Q 201.93 2.4 202.65 1.6 Q 203.38 0.8 203.35 -0.15 L 203.35 -0.15 L 203.15 -0.15 Q 202.28 -0.15 201.6 -0.69 Q 200.93 -1.23 200.93 -2.23 L 200.93 -2.23 Q 200.93 -3.18 201.6 -3.75 Q 202.28 -4.33 203.23 -4.33 L 203.23 -4.33 Q 204.48 -4.33 205.13 -3.41 Q 205.78 -2.5 205.78 -0.85 L 205.78 -0.85 Q 205.78 1.23 204.63 2.71 Q 203.48 4.2 201.28 4.85 Z M 230.08 0 L 226.4 0 L 226.4 -16.3 L 230.08 -16.3 L 230.08 0 Z M 244.05 -8.25 L 244.05 -8.25 L 243.65 -6.75 L 247.13 -6.75 L 246.75 -8.25 Q 246.4 -9.47 246.08 -10.85 Q 245.75 -12.23 245.43 -13.5 L 245.43 -13.5 L 245.33 -13.5 Q 245.03 -12.2 244.71 -10.84 Q 244.4 -9.47 244.05 -8.25 Z M 241.9 0 L 238.15 0 L 243.25 -16.3 L 247.68 -16.3 L 252.78 0 L 248.88 0 L 247.88 -3.88 L 242.9 -3.88 L 241.9 0 Z" stroke-linecap="round" />
</g>
</g>
</g>
</svg>